<svg xmlns="http://www.w3.org/2000/svg" xmlns:xlink="http://www.w3.org/1999/xlink" width="1686.984" height="1800" viewBox="0 0 1686.984 1800"><defs><style>.a{fill:#fff;}.b{clip-path:url(#a);}</style><clipPath id="a"><rect class="a" width="1686.984" height="1800"/></clipPath></defs><g class="b" transform="translate(0 0)"><path class="a" d="M57.729,100.14,51.981,79.1,79.019,62.1,95.5,76.367,112.5,65.722,39.38,7.785,20.147,19.876,40.723,110.8ZM41.506,29.433,67.013,51.267l-19.3,12.125Q39.55,32.834,37.033,25.283c1.071,1.054,2.551,2.449,4.472,4.149" transform="translate(322.457 124.6)"/><path class="a" d="M128.05,52.746V172.31H79.738v38.483h168.1l-48.363-79.329,48.363-78.717Z" transform="translate(1276.227 844.215)"/><path class="a" d="M27.319,81.778a49.041,49.041,0,0,0,28.348,20.151l.068-.051a32.67,32.67,0,0,0,6.173.68,39.283,39.283,0,0,0,24.045-9.285,62.117,62.117,0,0,0,16.308-18.281L92.738,62.647A68.7,68.7,0,0,1,77.876,79.958Q60.454,93.4,42.556,70.2a36.656,36.656,0,0,1-8.843-20.9,18.952,18.952,0,0,1,8.043-16.172,29.691,29.691,0,0,1,8.792-4.574,98.442,98.442,0,0,1,10.322-2.806L56.4,10.118a58.727,58.727,0,0,0-24.079,10.8A42.441,42.441,0,0,0,18.358,38.585a35.753,35.753,0,0,0-1.7,21.206A54,54,0,0,0,27.319,81.778" transform="translate(252.552 161.94)"/><path class="a" d="M30.609,43.953,68.36,86.211,63.684,96.976l7.023,7.856L100.4,78.3l-7.006-7.873-11.223,3.4L44.417,31.574l4.676-10.781-7.04-7.856L12.345,39.464l7.023,7.89Z" transform="translate(197.586 207.043)"/><path class="a" d="M59.784,46.845Q73.3,56.411,76.466,58.562c2.109,1.428,3.945,2.7,5.629,3.758l34.861,22.447,9.387-14.539L52.709,22.749,39.02,44.005,83.4,98.779l-.187.289L15.672,80.21,2,101.432l73.581,47.462,8.979-13.944L50.329,112.843q-5.867-3.8-24.13-14.2l.289-.442,69.194,19.522,9.2-14.3L59.495,47.3Z" transform="translate(32.01 364.102)"/><path class="a" d="M134.675,52.746H8.429l48.346,79.329L8.429,210.793h168.1V172.31h-41.85Z" transform="translate(134.903 844.215)"/><path class="a" d="M84.932,96.5,60.785,73.15l6.8-7.108,38.67,8.35L120.626,59.58l-45.37-8.026a28.511,28.511,0,0,0,1.6-15.3,23.216,23.216,0,0,0-6.938-12.618A23.229,23.229,0,0,0,49.8,16.064,43.581,43.581,0,0,0,26.757,30.535L9,48.85l63,61ZM49.868,62.556,32.862,46.112l3.911-4.064a26.057,26.057,0,0,1,11.121-7.7h.136a9.1,9.1,0,0,1,2.024-.306,10.31,10.31,0,0,1,7.21,3.4,10.392,10.392,0,0,1,3.69,9.421,22.867,22.867,0,0,1-6.921,11.393Z" transform="translate(144.111 254.37)"/><path class="a" d="M32.4,94.724A11.249,11.249,0,0,0,21.18,105.965l-.034-.017v.068A11.235,11.235,0,0,0,32.4,117.205h.034A11.241,11.241,0,0,0,32.4,94.724" transform="translate(338.446 1516.076)"/><path class="a" d="M83.513,122.105l11.7.7,4.982-9.285L65.1,94.693l-5,9.3,7.108,9.37L40.439,163.326l-11.734-.7-4.982,9.3,35.167,18.808,4.966-9.3-7.091-9.353Z" transform="translate(379.683 1515.578)"/><path class="a" d="M76.393,109.608,58.725,72.333c-2.109-4.472-6.02-11.9-11.734-22.107l.51-.238,62.8,43.584,21.324-10.1L94.214,4.312,79.1,11.454,96.833,48.866q3.035,6.4,11.155,21.461l-.391.17L45.137,27.49,23.966,37.506,61.394,116.7Z" transform="translate(383.581 69.014)"/><path class="a" d="M106.041,73.423,94.036,63.866,74.207,88.83,56.556,74.766,74.99,51.554,63.086,42.1,44.652,65.311l-15.084-11.9L49.4,28.478,37.51,19.006,6.1,58.492,74.65,112.926Z" transform="translate(97.659 304.2)"/><path class="a" d="M0,50.571l65.912,66.014L74.568,98.56,58.515,83.8,72.357,55.01l21.529,3.3,8.673-18.026L9.846,30.165Zm23.2-3.316q3.826.561,33.16,4.931L46.492,72.78v-.1Q23.28,51.149,17.192,46.133c1.462.323,3.469.714,6,1.122" transform="translate(0 482.797)"/><path class="a" d="M1118.072,541.269h-70.351c.85-412.631-.136-413.226-3.86-415.012A1015.324,1015.324,0,0,0,586.438,18.937,1111.827,1111.827,0,0,0,109.6,126.325l-2.976,1.582V541.286H16.883V699.264h89.736v145.02c0,327.843,333.727,432.391,443.359,466.708,10.73,3.384,19.182,6.037,24.794,8.146l2.041.7,1.99-.714c5.612-2.109,14.08-4.745,24.794-8.145,109.65-34.3,443.461-138.847,443.461-466.708.119-52.036.2-100.246.323-145.02h70.691ZM571.167,30.45V541.269H117.877V134.726h-.068A1107.205,1107.205,0,0,1,571.167,30.45M530.593,610.089v10.458H514.982v34.589h20.763v10.373h-20.78a10.407,10.407,0,0,1-10.441-10.373V575.5l-.068.017v-.068a10.426,10.426,0,0,1,10.526-10.322h20.763V575.5H514.982v34.588Zm-61.185,45.047V634.3H479.85v31.2H448.628V565.127h10.407v90.009Zm-45.591,4.115a7.45,7.45,0,0,1-7.448,7.414h-.034a7.417,7.417,0,0,1-7.4-7.414l-.034-.017v-.051a7.457,7.457,0,0,1,14.914.068m-49.791-69.789c-3.5,12.244-7.465,22.753-11.1,33.738h-.255c-3.639-11-7.619-21.512-11.121-33.738h-.323c.6,7.856,1.19,21.086,1.19,30.218v45.829H341.954V565.178h9.676l6.224,17.992c1.65,5.1,3.367,10.2,4.9,15.3h.238c1.581-5.1,3.282-10.2,4.983-15.3l6.156-17.992h9.591V665.509H373.261V619.68c0-9.132.6-22.345,1.122-30.218Zm-80.06,31.086v44.962h-10.39V579.871a15.6,15.6,0,1,1,31.2,0v85.638H304.424V620.547Zm-40.251-10.458v10.458H238.036v34.589h20.831v10.373h-20.9a10.349,10.349,0,0,1-10.322-10.373V575.5l-.068.017V575.4a10.379,10.379,0,0,1,10.458-10.271h20.831V575.5H238.036v34.588ZM179.572,620.5v44.962H169.131V565.127h20.882A10.386,10.386,0,0,1,200.4,575.5v31.817a8.014,8.014,0,0,1-4.625,8.009c2.517.986,4.625,3.112,4.625,9.251v33.534a14.662,14.662,0,0,0,2.517,7.414H192.207a16.605,16.605,0,0,1-2.245-7.414V620.547Zm-68.837-55.369h20.814A10.4,10.4,0,0,1,141.956,575.5v79.72A10.371,10.371,0,0,1,131.5,665.509H110.735ZM571.15,1305.975c-5.034-1.649-10.713-3.5-17.8-5.679-107.711-33.789-435.5-136.484-435.5-456.011V699.247H571.15Zm-.238-685.428v44.962H560.471V579.871a15.628,15.628,0,0,1,31.255,0v85.638H581.3V620.547ZM1035.7,844.284c0,319.528-327.792,422.222-435.52,456.011-7.074,2.177-12.7,3.979-17.787,5.679V699.264H1036c-.1,52.767-.306,102.371-.306,145.02M650.191,624.577v33.534a14.967,14.967,0,0,0,2.5,7.414h-10.7a16.821,16.821,0,0,1-2.245-7.414V620.547l-10.39-.051v44.962H618.986V565.127h20.746A10.433,10.433,0,0,1,650.191,575.5v31.817a7.953,7.953,0,0,1-4.693,8.009c2.585.986,4.693,3.112,4.693,9.251m48.091-30.3v-29.1h10.356V665.509h-9.846c-3.605-21.086-8.979-41.85-12.108-64.28h-.238c.612,8.469,1.462,26.324,1.462,35.184v29.1H677.45V565.178h9.863c3.605,21.087,9,41.867,12.108,64.28h.255c-.6-8.468-1.394-26.324-1.394-35.184m35.439,64.96V659.2a7.381,7.381,0,0,1,7.448-7.346h.017a7.4,7.4,0,0,1,7.4,7.4v.034a7.414,7.414,0,0,1-7.414,7.38h-.034a7.381,7.381,0,0,1-7.38-7.414Zm60.624-4.047V620.6H783.971a10.462,10.462,0,0,1-10.458-10.458V579.922a15.645,15.645,0,0,1,31.29-.068V591.23H794.344V575.483H783.971v34.589h10.39A10.436,10.436,0,0,1,804.8,620.53v30.218a15.645,15.645,0,0,1-31.29,0V639.372h10.458v15.815Zm63.685-45.1v10.458H842.417v34.589h20.831v10.373h-20.9a10.349,10.349,0,0,1-10.322-10.373V575.5l-.034.017v-.1a10.364,10.364,0,0,1,10.424-10.288h20.831V575.5H842.417v34.588Zm61.151,14.489v33.534a14.841,14.841,0,0,0,2.534,7.414H911.067a17.288,17.288,0,0,1-2.313-7.414V620.547l-10.322-.051v44.962H887.957V565.127h20.832a10.364,10.364,0,0,1,10.39,10.373v31.817a7.966,7.966,0,0,1-4.625,8.009c2.5.986,4.625,3.112,4.625,9.251m24.657-59.4h10.509l4.642,49.315c.544,6.343,1.241,12.5,1.7,25.321h.238c.459-12.822,1.122-18.978,1.718-25.321l4.626-49.315H977.8L965.773,665.509H955.91Zm84.55,44.911v10.458h-15.543v34.589h20.831v10.373h-20.933a10.367,10.367,0,0,1-10.356-10.373V575.5l-.051.017V575.4a10.379,10.379,0,0,1,10.509-10.271h20.831V575.5h-20.831v34.588Zm7.942-68.837h-453.9V30.348c1.377,0,2.721-.1,4.047-.119a1004.848,1004.848,0,0,1,449.464,104.6c.765,25.8.714,213.534.391,406.424" transform="translate(270.216 303.022)"/><path class="a" d="M146.6,109.982a22.5,22.5,0,0,0,8.774-10.968,19.575,19.575,0,0,0-1.479-13.791l.442-.374a14.7,14.7,0,0,0,10.679,4.319,21.216,21.216,0,0,0,12.567-4.642A18.488,18.488,0,0,0,186.2,67.758a52.972,52.972,0,0,0-11.7-24.947L158.333,20.841,87.744,72.656l19.369,26.409a37.327,37.327,0,0,0,19.318,15h.1a22.452,22.452,0,0,0,6.088.9,23.168,23.168,0,0,0,13.978-4.983m10.56-65.2,5.782,7.89a24.312,24.312,0,0,1,5.1,10.7,7.792,7.792,0,0,1-3.622,7.244,8.769,8.769,0,0,1-8.265,1.837,19.168,19.168,0,0,1-8.332-7.431l-6.377-8.69Zm-38.891,43.5-7.125-9.744,18.417-13.5,6.785,9.251c6.139,8.4,6.309,14.744.408,19.046a10.772,10.772,0,0,1-9.37,2.364,18.116,18.116,0,0,1-9.115-7.414" transform="translate(1404.36 333.564)"/><path class="a" d="M38.661,46.807a27.278,27.278,0,0,0,8.5,5.833,53.56,53.56,0,0,0,13.6,3.4,109.09,109.09,0,0,1,12.618,2.33,16.107,16.107,0,0,1,5.1,2.466,7.707,7.707,0,0,1,2.721,3.945,8.016,8.016,0,0,1-1.088,7.6,15.891,15.891,0,0,1-8.264,4.983,44.716,44.716,0,0,1-11.224,1.7,106.843,106.843,0,0,1-15.985-.9l5.1,16.478.1-.034a51.126,51.126,0,0,0,7.55.731,60.745,60.745,0,0,0,17.7-2.806,37.1,37.1,0,0,0,20.7-13.6,22.616,22.616,0,0,0,2.67-20.406,23.043,23.043,0,0,0-8.622-12.482,46.819,46.819,0,0,0-19.539-6.309,122.686,122.686,0,0,1-13.077-2.4,11.815,11.815,0,0,1-4.489-2.33,7.847,7.847,0,0,1-2.364-3.741,8.257,8.257,0,0,1,.816-6.972A11.912,11.912,0,0,1,58.2,19.6a37.967,37.967,0,0,1,8.945-1.581,89.474,89.474,0,0,1,12.261.442L80.885,2.9a88.142,88.142,0,0,0-13.723-.527A51.55,51.55,0,0,0,54.221,4.651,32.631,32.631,0,0,0,35.362,17.422,22.581,22.581,0,0,0,33.2,37.2a23.281,23.281,0,0,0,5.459,9.608" transform="translate(509.808 36.841)"/><path class="a" d="M181.527,26.145,90.192,44.613l10.2,17.175,21.172-5.221L137.943,84l-14.675,16.155,10.271,17.192,59.62-71.694ZM171.494,47.231q-2.652,2.832-22.447,24.93L137.331,52.537l-.017-.085c20.559-4.9,33.33-8.2,38.4-9.591-1.037.969-2.517,2.466-4.217,4.37" transform="translate(1443.541 418.456)"/><path class="a" d="M86.088,91.894l14.981-31.2,26.8,12.856,6.547-13.6L107.634,47.069l9.8-20.406L146.2,40.488l6.564-13.706L107.531,5.049l-37.9,78.938Z" transform="translate(1114.392 80.81)"/><rect class="a" width="10.373" height="34.589" transform="translate(1168.614 878.658)"/><path class="a" d="M95.734,92.151,95.8,92.1a41.768,41.768,0,0,0,26.8,11.138,32.833,32.833,0,0,0,4.3-.272A47.324,47.324,0,0,0,156.613,84.26a47.636,47.636,0,0,0,13.247-32.514,39.66,39.66,0,0,0-16.257-28.7,40.356,40.356,0,0,0-31.188-11.036A46.922,46.922,0,0,0,92.724,30.711a47.5,47.5,0,0,0-13.2,32.65,39.749,39.749,0,0,0,16.206,28.79m11.8-48.856A36.571,36.571,0,0,1,126.1,29.912l.068-.068a17.344,17.344,0,0,1,4.064-.476,20.846,20.846,0,0,1,13.468,5.493q16.911,14.131-2.041,36.867T105.7,80.23A19.463,19.463,0,0,1,97.69,63.837a36.717,36.717,0,0,1,9.846-20.542" transform="translate(1272.861 189.948)"/><path class="a" d="M184.284,80.263l-40.422-1.088,24.811-31.834-8.622-18.213L123.61,78.562,93.357,92.88l7.839,16.631,30.8-14.573,60.794,3.4Z" transform="translate(1494.202 466.199)"/><path class="a" d="M94.575,87.319l29.742-27.872q5.051-4.77,19.59-19.964l.391.391L108.587,102.25l11.631,12.414L185.74,84.224l.374.391c-8.367,7.193-13.553,11.632-15.441,13.349-1.9,1.717-3.571,3.231-4.983,4.574l-30.269,28.331,11.886,12.669,63.855-59.909L193.868,65.178,129.962,94.954l-.238-.255L164.4,33.753,147.1,15.3,83.2,75.228Z" transform="translate(1331.6 244.911)"/><path class="a" d="M92.566,91.383l.085-.034a50.909,50.909,0,0,0,17.125,3.333,34.27,34.27,0,0,0,15.849-3.775,47.6,47.6,0,0,0,21.495-27.786,47.7,47.7,0,0,0,1.327-35.065,39.879,39.879,0,0,0-25.1-21.427,40.3,40.3,0,0,0-33.058.306A46.961,46.961,0,0,0,68.742,34.688a47.63,47.63,0,0,0-1.258,35.2A39.916,39.916,0,0,0,92.566,91.383M87.023,41.422a36.428,36.428,0,0,1,12.805-18.91l.119-.034a17.434,17.434,0,0,1,9.744-2.925,24.22,24.22,0,0,1,8.366,1.615q20.866,7.55,10.764,35.337Q118.746,84.284,97.889,76.725A19.361,19.361,0,0,1,84.761,64.09a36.183,36.183,0,0,1,2.261-22.668" transform="translate(1035.677 51.783)"/><path class="a" d="M102.383,99.44a39.386,39.386,0,0,0,21,7.21c.765,0,1.548-.034,2.3-.1a22.306,22.306,0,0,0,17.43-11.019,22.371,22.371,0,0,0,4.234-13.383A19.365,19.365,0,0,0,141,69.8l.323-.493a14.709,14.709,0,0,0,11.513.221A21.411,21.411,0,0,0,162.922,60.7,18.455,18.455,0,0,0,164.98,42a52.445,52.445,0,0,0-19.828-19.114L122.211,8.088,74.784,81.721,102.3,99.491Zm27.242-68.48,8.2,5.272a23.367,23.367,0,0,1,8.639,8.2,7.739,7.739,0,0,1-.85,8.043,8.782,8.782,0,0,1-7.023,4.659,19.547,19.547,0,0,1-10.424-3.945l-9.1-5.85ZM111.039,59.7l9.693,6.224q13.085,8.418,7.176,17.634a10.885,10.885,0,0,1-7.975,5.578,18.124,18.124,0,0,1-11.07-3.673L98.642,78.9Z" transform="translate(1196.932 129.45)"/><path class="a" d="M58.082,78.733A39.818,39.818,0,0,0,88.538,90.314h.391a40.034,40.034,0,0,0,30.83-11.9,47.617,47.617,0,0,0,10.628-33.483,47.6,47.6,0,0,0-10.9-33.364A39.932,39.932,0,0,0,88.538.1,40.4,40.4,0,0,0,57.589,11.818,47.087,47.087,0,0,0,46.96,45.267a47.884,47.884,0,0,0,10.968,33.5ZM71.89,23.109a19.565,19.565,0,0,1,16.648-7.55l.221-.034q21.988-.051,22.107,29.47T88.759,74.652a19.524,19.524,0,0,1-16.716-7.329,36.756,36.756,0,0,1-5.7-22.107A36.431,36.431,0,0,1,71.89,23.109" transform="translate(749.529 0.001)"/><path class="a" d="M68.633,92.832,64.705,55.251l34.487-3.605,3.945,37.581,18.4-1.922L112.422.205,94.005,2.127l3.571,34.129L63.09,39.861,59.5,5.732,41.051,7.653l9.1,87.1Z" transform="translate(657.029 3.283)"/><path class="a" d="M114.632,83.42l-34.64-7.754,15.815-70.5L77.646,1.1,58.515,86.583l52.733,11.8Z" transform="translate(936.538 17.577)"/><path class="a" d="M55.18,85.836l.1-.034a32.836,32.836,0,0,0,19.641,6.224,51,51,0,0,0,11.359-1.377,62.364,62.364,0,0,0,22.447-9.778l-3.486-15.186a69.711,69.711,0,0,1-20.729,9.506q-21.426,4.9-28.008-23.637a36.932,36.932,0,0,1,.68-22.685A18.967,18.967,0,0,1,71.25,17.544a29.81,29.81,0,0,1,9.9-.493,96.506,96.506,0,0,1,10.543,1.7L94.139,2.715A58.533,58.533,0,0,0,67.764,2.46a42.243,42.243,0,0,0-20.032,10.2,35.926,35.926,0,0,0-10.407,18.57,54.724,54.724,0,0,0,.527,24.453A49.255,49.255,0,0,0,55.18,85.836" transform="translate(579.266 17.283)"/><path class="a" d="M116.628,119.415l-15.815,38.347c-1.786,4.37-4.574,11.887-8.367,22.668l-.391-.187-10.2-75.129L60.2,96.169l-33.4,81.013,15.3,6.309L57.823,145.4q2.857-6.938,8.5-23.586l.493.221L76.8,197.826l21.886,8.927,33.381-80.978Z" transform="translate(429.035 1539.203)"/><path class="a" d="M89.689,90.582l.136-.017a63.379,63.379,0,0,0,7.159.544,36.854,36.854,0,0,0,24.827-8.384,47.615,47.615,0,0,0,14.709-31.9,47.635,47.635,0,0,0-6.649-34.47,39.889,39.889,0,0,0-29.3-15.3A40.435,40.435,0,0,0,68.4,8.821a47.232,47.232,0,0,0-14.71,31.851,47.747,47.747,0,0,0,6.7,34.606,40.094,40.094,0,0,0,29.3,15.3M72.99,43.137a36.655,36.655,0,0,1,8.2-21.308l.17-.017A18.432,18.432,0,0,1,95.147,16.2a31.156,31.156,0,0,1,3.554.221q21.937,2.653,18.434,32T91.525,75.107a19.569,19.569,0,0,1-15.645-9.37,36.441,36.441,0,0,1-2.891-22.6" transform="translate(846.005 5.753)"/><rect class="a" width="10.39" height="34.589" transform="translate(899.575 878.658)"/><path class="a" d="M84.008,106.18,57.7,98.29l-25.185,83.9,23.824,7.125h-.034a68.162,68.162,0,0,0,19.386,3.129,39.859,39.859,0,0,0,17.974-3.962,43.119,43.119,0,0,0,21.308-28.229,41.5,41.5,0,0,0-2.313-33.67A46.093,46.093,0,0,0,84.008,106.18m12.38,49.06A24.636,24.636,0,0,1,62.377,175.1l-7.618-2.261L71.152,118.2l9.455,2.84c15.934,4.8,21.188,16.155,15.781,34.2" transform="translate(520.425 1573.151)"/><path class="a" d="M34.177,62.656a117.415,117.415,0,0,1,178.64,100.229l-.034-.051v.068a5.937,5.937,0,0,0,6,5.85h.017a5.937,5.937,0,0,0,5.918-5.935A129.333,129.333,0,0,0,27.97,52.538l-.034.017a5.937,5.937,0,0,0,6.241,10.1" transform="translate(402.244 537.406)"/><path class="a" d="M291.155,176.6A139.5,139.5,0,0,1,119.793,368.083l-4.983-1.7-23.28,54.995h82.747v20.406H62.044a5.637,5.637,0,0,0,0,11.274l123.56.051V410.137H108.621l12.55-29.725A150.814,150.814,0,0,0,219.886,95.643l10.033-26.528A5.656,5.656,0,0,0,219.342,65.1l-14.064,37.275,5.476,1.9a138.4,138.4,0,0,1,80.4,72.323" transform="translate(902.933 983.677)"/><path class="a" d="M35.2,75.04A86.985,86.985,0,0,1,185.93,134.235v90.128l-.034-.1v.136a5.944,5.944,0,0,0,11.887-.051V134.218A98.827,98.827,0,0,0,26.506,66.98L26.489,67A5.927,5.927,0,0,0,35.2,75.04" transform="translate(398.709 566.056)"/><rect class="a" width="10.39" height="34.589" transform="translate(564.198 878.658)"/><rect class="a" width="10.373" height="34.589" transform="translate(841.111 878.658)"/><path class="a" d="M33.819,52.15a146.6,146.6,0,0,1,166.158,50.114,142.175,142.175,0,0,1,31.8,78.224c-.306,3.163-.442,6.36-.442,9.574V280.19l-.051-.1v.034a5.912,5.912,0,0,0,5.986,5.85h.034a5.893,5.893,0,0,0,5.884-5.918V211.693a5.413,5.413,0,0,0,.459-1.8,163.961,163.961,0,0,0,.085-29.606,86.995,86.995,0,0,1,150.207-49.5,5.932,5.932,0,0,0,8.707-8.06A98.83,98.83,0,0,0,238.8,152.328a144.708,144.708,0,0,0-29.759-57.7A158.35,158.35,0,0,0,29.857,40.995,5.919,5.919,0,1,0,33.819,52.15" transform="translate(414.727 510.228)"/><path class="a" d="M34.834,40.349a202.489,202.489,0,0,1,118.2,37.785l.238.374-.017-.153a5.808,5.808,0,0,0,8.3,1.411A202.058,202.058,0,0,1,282.072,40.349a5.926,5.926,0,0,0,0-11.853A213.717,213.717,0,0,0,158.445,67.456,213.951,213.951,0,0,0,34.834,28.5h-.017a5.922,5.922,0,0,0-5.9,5.935v.034a5.9,5.9,0,0,0,5.918,5.884" transform="translate(462.806 456.083)"/><path class="a" d="M34.33,43.145a165.885,165.885,0,0,1,18.6-1A173.28,173.28,0,0,1,170.558,88.056a5.8,5.8,0,0,0,3.52,1.548v-.17a5.351,5.351,0,0,0,7.482-.34A172.493,172.493,0,0,1,300.189,42.142a166.1,166.1,0,0,1,18.6,1l.221.017a5.8,5.8,0,0,0,6.292-5.289,5.956,5.956,0,0,0-5.255-6.53,188.967,188.967,0,0,0-19.845-1.054A184.329,184.329,0,0,0,176.612,77.547,185.216,185.216,0,0,0,52.951,30.289a189.044,189.044,0,0,0-19.862,1.054,5.947,5.947,0,0,0-5.272,6.53l.034.391a5.746,5.746,0,0,0,6.479,4.88" transform="translate(444.69 484.781)"/><path class="a" d="M36.27,38.886a230.367,230.367,0,0,1,79.686,30.235h.085a5.563,5.563,0,0,0,6.173-.136,8.685,8.685,0,0,0,.816-.374,228.93,228.93,0,0,1,78.717-29.725h.034a5.938,5.938,0,0,0-2.041-11.7,240.537,240.537,0,0,0-80.639,30,241.7,241.7,0,0,0-80.741-30A6.013,6.013,0,0,0,31.458,32a5.952,5.952,0,0,0,4.812,6.887" transform="translate(502.063 433.773)"/><path class="a" d="M62.825,40.295H220.633a5.62,5.62,0,1,0,0-11.241H62.825a5.61,5.61,0,0,0-5.612,5.629v.034a5.6,5.6,0,0,0,5.612,5.578" transform="translate(915.705 465.015)"/><path class="a" d="M220.636,30.746H62.828a5.6,5.6,0,0,0-5.612,5.612v.017a5.624,5.624,0,0,0,5.612,5.646H220.636a5.637,5.637,0,0,0,0-11.274" transform="translate(915.753 492.096)"/><rect class="a" width="10.39" height="79.601" transform="translate(391.324 878.658)"/><path class="a" d="M226.266,41.432a5.646,5.646,0,0,0-5.629-5.629H62.812a5.606,5.606,0,0,0-5.595,5.629v.017a5.6,5.6,0,0,0,5.612,5.612H220.637a5.625,5.625,0,0,0,5.629-5.629" transform="translate(915.769 573.034)"/><path class="a" d="M97.815,442.572l1.7,1.7,214.606.034a5.824,5.824,0,0,0,0-11.649H104.345c-42.819-43.414-63.855-89.651-62.579-137.249A205.5,205.5,0,0,1,101.012,166.17l8.332,12.4C89.551,260.4,96.9,319.132,131.248,353.142a128.945,128.945,0,0,0,92,32.31,208.548,208.548,0,0,0,47.7-5.407,5.842,5.842,0,0,0,4.217-7.074l-.034-.1a5.753,5.753,0,0,0-7.057-4.1,175.28,175.28,0,0,1-19.233,3.282V320.033h32.378a5.81,5.81,0,0,0,5.816-5.8v-.017a5.813,5.813,0,0,0-5.816-5.816H166.669a5.816,5.816,0,0,0,0,11.632h27.446v51.015a101.082,101.082,0,0,1-54.689-26.2c-29.759-29.453-36.663-81-21.1-152.792L163.54,259.7l45.523-30.405L97.271,62.013,51.731,92.367l24.3,36.374c.136.272-.136.374.136.816.255.459.7.629,1.071.986L94.4,156.188A215.519,215.519,0,0,0,30.152,294.95C28.723,346.6,51.476,396.267,97.815,442.572M205.747,319.914h31.477v53.124a196.482,196.482,0,0,1-31.477-.442Zm-12.822-93.9-26.171,17.515L153.83,224.209l26.511-17.039ZM67.869,95.6,94.04,78.083l15.475,23.178L83.021,118.266Zm21.648,32.31,26.511-16.988,57.818,86.591-26.528,17.005Z" transform="translate(481.569 992.53)"/><path class="a" d="M220.636,32.435H62.794a5.637,5.637,0,0,0,.034,11.274H220.636a5.637,5.637,0,0,0,0-11.274" transform="translate(915.753 519.128)"/><rect class="a" width="10.373" height="34.589" transform="translate(449.804 878.658)"/><path class="a" d="M62.828,45.4H220.636a5.637,5.637,0,0,0,0-11.275H62.794a5.6,5.6,0,0,0-5.578,5.646v.017A5.606,5.606,0,0,0,62.828,45.4" transform="translate(915.753 546.129)"/><path class="a" d="M81.488,100.34,40.335,183.989l19.879,2.381,8.775-19.93,31.715,3.792,3.826,21.477,19.913,2.33-20.406-91.012Zm-6.02,51.2-.034-.017q12.932-28.951,15.815-36.289c.136,1.445.391,3.435.867,5.986.459,2.551,2.449,13.587,6.037,33.024Z" transform="translate(645.57 1605.961)"/><path class="a" d="M60.365,103.161A11.238,11.238,0,0,0,49.142,114.4h-.034a11.249,11.249,0,1,0,11.257-11.24" transform="translate(785.983 1651.112)"/><path class="a" d="M177.366,307.988a121.608,121.608,0,1,0-110.3-69.755,120.964,120.964,0,0,0,110.3,69.755m-.34-232.036A110.507,110.507,0,0,1,214.437,82.5a109.379,109.379,0,0,1,62.494,56.763,110.964,110.964,0,0,1,10.611,46.9L141.179,82.006l-.051-.085a109.125,109.125,0,0,1,35.9-5.969M128.9,87.039l.408.357L286.777,199.359a112.946,112.946,0,0,1-15.509,44.673L91.847,116.322l-.068-.085a109.915,109.915,0,0,1,37.122-29.2M85.2,125.42,264.943,253.384A109.977,109.977,0,0,1,226.7,285l-.289-.221L67.869,170.943l-.068-.085A111.077,111.077,0,0,1,85.2,125.42M214.59,290.2A110.711,110.711,0,0,1,77.307,233.471l-.085-.1a109.4,109.4,0,0,1-10.407-49.332Z" transform="translate(888.214 1034.776)"/><path class="a" d="M78.745,102.437,54.087,128.761l10.441,9.71L73.32,129c1-1.089,2.823-3.418,5.442-6.921l1,9.064,1.02,8.281,7.4,50.216,18.3-2.687L93.794,100.226Z" transform="translate(865.673 1604.136)"/><path class="a" d="M312.367,289.206l-10.951-.323V46.78a20.756,20.756,0,0,0-20.763-20.746H75.688A20.756,20.756,0,0,0,54.925,46.78V330.155a20.851,20.851,0,0,0,20.814,20.831H192.412l38.16,40.54a266.117,266.117,0,0,0,36.561,11.207l-.1-.085c15.407,4.846,34.861,10.934,35.286,10.866a5.943,5.943,0,0,0,5.612-3.894l15.56-40.387a70.227,70.227,0,0,0,3.826-20.848V305.872a16.708,16.708,0,0,0-14.947-16.665m-119.172,43.6-.051-.085c.017-.17.017-.34.051-.51a3.46,3.46,0,0,0,0,.6M232.017,335,213.09,314.884a14.769,14.769,0,0,0-21.6,0l-6.156,6.547a16.154,16.154,0,0,0-2.313,18.264H75.756a9.573,9.573,0,0,1-9.506-9.54l-.017-26.29H232.017Zm6.394,16.138-.017-.034c0-.068.187-.2.374-.119h.459a6.283,6.283,0,0,1-.816.153M99.445,220.761h-.051a5.629,5.629,0,0,0,.051,11.257H232.68a15.378,15.378,0,0,0-.663,3.5v13.944H99.377a5.62,5.62,0,0,0,0,11.24h132.64v31.8H66.233V46.882l-.034-.1a9.572,9.572,0,0,1,9.353-9.523h204.93a9.518,9.518,0,0,1,9.472,9.523V288.509l-18.383-.527a4.769,4.769,0,0,1-3.639-4.676V235.487a15.6,15.6,0,0,0-6.479-12.312,4.771,4.771,0,0,0-2.4-1.7,12.659,12.659,0,0,0-1.888-.714,15.305,15.305,0,0,0-4.829-1H247.1a15.107,15.107,0,0,0-4.812,1ZM280.754,339.712h-36.51v-.017H280.7a9.173,9.173,0,0,0,3.044-.629c-.323.1-.6.306-.919.391a8.956,8.956,0,0,1-2.125.238Zm4.2-1.156a10.116,10.116,0,0,0,1.734-1.19,10.116,10.116,0,0,1-1.734,1.19m2.7-2.075a9,9,0,0,0,1.207-1.8,9.513,9.513,0,0,1-1.207,1.8m1.82-2.891a9.491,9.491,0,0,0,.68-3.418,9.564,9.564,0,0,1-.68,3.418m22.158-32.259c.374.068.561.391.867.527a5.392,5.392,0,0,0-1.326-.527Zm-14.88,104.157a.271.271,0,0,1-.136.17l14.029-37.139-.051-.085c.187-.323.442-.663.663-1.105Zm14.624-38.143v-.017l.833-2.313Zm3.945-18.791a39.643,39.643,0,0,1-.578,6.343c-.068.68-.221,1.394-.34,2.058l-.051-.1c.136-.663.306-1.428.391-1.956l-.085-.085a100.528,100.528,0,0,0,.663-11.087Zm.034-4.846c0-3.843-.221-6.411-.221-6.411V309.2l-.051-.085c.476-4.047-.782-6.071-2.244-7.057a4.5,4.5,0,0,1,2.517,3.894Z" transform="translate(879.085 416.679)"/><path class="a" d="M56.225,74.959l-.017-.034-.034-.068Z" transform="translate(899.074 1198.101)"/><path class="a" d="M91.37,117.526l2.024-10.339L54.264,99.6l-2.024,10.323,9.557,6.8L50.965,172.367l-11.411,2.789L37.531,185.5l39.129,7.618,2.007-10.373-9.54-6.8,10.849-55.624Z" transform="translate(600.697 1594.149)"/><path class="a" d="M83.787,102.6,66.051,134.011,78.482,141l6.309-11.291c.731-1.344,1.989-4.013,3.69-8.027l3.146,8.5,2.942,7.805,18.961,47.036,17.192-6.938L97.868,96.872Z" transform="translate(1057.159 1550.455)"/><path class="a" d="M38.249,36.574l-.017-.034h-.017Z" transform="translate(611.638 584.833)"/><path class="a" d="M39.647,75.615h0A5.921,5.921,0,0,0,40,83.947a5.985,5.985,0,0,0,4.081,1.6,6.148,6.148,0,0,0,4.387-1.922A117.4,117.4,0,0,1,196.349,62.657a5.922,5.922,0,0,0,6.156-10.118A129.353,129.353,0,0,0,39.647,75.615" transform="translate(609.85 537.422)"/><path class="a" d="M39.226,74.517A5.952,5.952,0,0,0,38.92,82.9l-.017-.1a6.02,6.02,0,0,0,4.353,2.058,5.842,5.842,0,0,0,4.064-1.7A146.7,146.7,0,0,1,196.337,52.172h.017A5.93,5.93,0,0,0,200.333,41,158.465,158.465,0,0,0,39.226,74.517" transform="translate(597.653 510.325)"/><path class="a" d="M124.822,143.318a42.591,42.591,0,0,0-16.784-6.139,32,32,0,0,0,8.486-12.6,20.008,20.008,0,0,0-.17-12.5,18.149,18.149,0,0,0-12.023-12.312,33.109,33.109,0,0,0-21.069.782,33.225,33.225,0,0,0-17.549,11.768,18.161,18.161,0,0,0-2.721,16.9,22.081,22.081,0,0,0,6.8,10.2,32.776,32.776,0,0,0,13.4,6.36,32.994,32.994,0,0,0-9.03,13.6,23.01,23.01,0,0,0,.306,13.876A20.338,20.338,0,0,0,87.6,187.209l-.034-.017a27.86,27.86,0,0,0,9,1.462,47.538,47.538,0,0,0,14.369-2.517A35.111,35.111,0,0,0,130.06,173.06a20.927,20.927,0,0,0,2.721-19.131,20.353,20.353,0,0,0-7.958-10.611m-40.591-12.7a10.231,10.231,0,0,1-4.149-5.425,8.27,8.27,0,0,1,.765-7.091,11.446,11.446,0,0,1,6.53-4.66l-.017-.017a13.874,13.874,0,0,1,4.336-.714,10.125,10.125,0,0,1,3.69.663,7.878,7.878,0,0,1,4.881,5.271,10.183,10.183,0,0,1-.187,7.057,22.6,22.6,0,0,1-6.071,7.89,26.137,26.137,0,0,1-9.778-2.976m31.238,36.612a15.518,15.518,0,0,1-8.928,5.986,15.389,15.389,0,0,1-10.22.289,9.73,9.73,0,0,1-5.884-6.547h-.017c-1.836-5.7.646-11.733,7.567-18.059a42.71,42.71,0,0,1,12.771,3.724,10.631,10.631,0,0,1,5.561,6.1,9.976,9.976,0,0,1-.85,8.5" transform="translate(992.385 1575.142)"/><path class="a" d="M83.365,96.6a11.216,11.216,0,0,0-11.189,11.224l-.068-.017v.085A11.241,11.241,0,1,0,83.365,96.6" transform="translate(1154.103 1546.086)"/><path class="a" d="M112.974,111.73A29.159,29.159,0,0,0,99.2,101.238a31.356,31.356,0,0,0-17.566-.816,28.952,28.952,0,0,0-19.471,12.685,30.385,30.385,0,0,0-3.044,23.467,29.376,29.376,0,0,0,10.815,18.484,23,23,0,0,0,19.216,3.3,25.675,25.675,0,0,0,10.628-4.676,20.666,20.666,0,0,0,6.139-9.455l.7-.187a37.907,37.907,0,0,1-.085,16.529A19.118,19.118,0,0,1,99.4,170.891a36.53,36.53,0,0,1-14.319,5.935A44.3,44.3,0,0,1,74.491,177.9L77.7,192.369a58.863,58.863,0,0,0,11.682-1.7,41.041,41.041,0,0,0,29.487-19.522,58.505,58.505,0,0,0,2.347-40.115,50.492,50.492,0,0,0-8.247-19.3M99.862,137.663a13.946,13.946,0,0,1-8.622,5.68,10.745,10.745,0,0,1-9.557-1.7,15.792,15.792,0,0,1-5.1-9.2,17.356,17.356,0,0,1,.731-11.785,10.935,10.935,0,0,1,7.908-5.816h.017A11.765,11.765,0,0,1,95.73,117.6a19.272,19.272,0,0,1,6.207,10.952,11.148,11.148,0,0,1-2.075,9.115" transform="translate(928.459 1593.143)"/><path class="a" d="M37.877,37.55A261.775,261.775,0,0,1,77.21,54.3h.1a5.684,5.684,0,0,0,2.721.748,6.059,6.059,0,0,0,4.115-1.7,256.327,256.327,0,0,1,37.411-15.8,5.958,5.958,0,0,0,3.775-7.482v-.017a5.939,5.939,0,0,0-7.5-3.758A269.7,269.7,0,0,0,79.726,42.243,272.353,272.353,0,0,0,41.635,26.293l-.085-.034a5.91,5.91,0,0,0-7.414,3.809l-.017.051a5.886,5.886,0,0,0,3.758,7.431" transform="translate(541.405 415.791)"/></g></svg>