<svg xmlns="http://www.w3.org/2000/svg" xmlns:xlink="http://www.w3.org/1999/xlink" width="116.113" height="123.892" viewBox="0 0 116.113 123.892"><defs><style>.a{fill:#144734;}.b{clip-path:url(#a);}</style><clipPath id="a"><rect class="a" width="116.113" height="123.892"/></clipPath></defs><g class="b" transform="translate(0 0)"><path class="a" d="M22.734,14.142l-.4-1.448,1.861-1.17,1.134.982,1.17-.733L21.471,7.785l-1.324.832,1.416,6.258ZM21.617,9.275l1.756,1.5-1.328.835q-.562-2.1-.735-2.623c.074.073.176.169.308.286" transform="translate(3.434 1.327)"/><path class="a" d="M83.064,52.746v8.229H79.738v2.649h11.57l-3.329-5.46,3.329-5.418Z" transform="translate(13.591 8.99)"/><path class="a" d="M16.574,15.05a3.375,3.375,0,0,0,1.951,1.387l0,0a2.249,2.249,0,0,0,.425.047,2.7,2.7,0,0,0,1.655-.639,4.275,4.275,0,0,0,1.122-1.258l-.655-.85a4.728,4.728,0,0,1-1.023,1.192q-1.2.925-2.431-.672a2.523,2.523,0,0,1-.609-1.438,1.3,1.3,0,0,1,.554-1.113,2.044,2.044,0,0,1,.605-.315,6.775,6.775,0,0,1,.71-.193l-.308-1.076a4.042,4.042,0,0,0-1.657.743,2.921,2.921,0,0,0-.961,1.216,2.461,2.461,0,0,0-.117,1.46,3.717,3.717,0,0,0,.734,1.513" transform="translate(2.69 1.725)"/><path class="a" d="M13.6,15.071l2.6,2.909-.322.741.483.541,2.044-1.826-.482-.542-.772.234-2.6-2.909.322-.742-.485-.541-2.045,1.826.483.543Z" transform="translate(2.104 2.205)"/><path class="a" d="M5.977,24.408q.931.658,1.148.806c.145.1.272.186.387.259l2.4,1.545.646-1L5.49,22.749l-.942,1.463L7.6,27.982,7.59,28,2.941,26.7,2,28.165l5.065,3.267.618-.96L5.326,28.95q-.4-.262-1.661-.977l.02-.03,4.763,1.344.633-.984L5.957,24.439Z" transform="translate(0.341 3.877)"/><path class="a" d="M17.118,52.746H8.429l3.328,5.46L8.429,63.624H20V60.976h-2.88Z" transform="translate(1.437 8.99)"/><path class="a" d="M14.23,21.441l-1.662-1.607.468-.489,2.662.575.989-1.019-3.123-.552a1.962,1.962,0,0,0,.11-1.053A1.786,1.786,0,0,0,11.812,15.9a3,3,0,0,0-1.586,1L9,18.161l4.337,4.2ZM11.817,19.1l-1.17-1.132.269-.28a1.793,1.793,0,0,1,.765-.53h.009a.627.627,0,0,1,.139-.021.844.844,0,0,1,.75.883,1.574,1.574,0,0,1-.476.784Z" transform="translate(1.535 2.709)"/><path class="a" d="M21.921,94.724a.774.774,0,0,0-.772.774h0v0a.773.773,0,0,0,.775.77h0a.774.774,0,0,0,0-1.547" transform="translate(3.604 16.145)"/><path class="a" d="M27.838,96.58l.805.048.343-.639-2.416-1.3-.344.64.489.645-1.842,3.439-.808-.048-.343.64,2.42,1.295.342-.64L26,100.02Z" transform="translate(4.043 16.14)"/><path class="a" d="M27.574,11.559,26.358,8.994c-.145-.308-.414-.819-.808-1.522l.035-.016,4.322,3,1.468-.7L28.8,4.312,27.761,4.8l1.221,2.575q.209.441.768,1.477l-.027.012-4.3-2.96L23.966,6.6l2.576,5.451Z" transform="translate(4.085 0.735)"/><path class="a" d="M12.98,22.752l-.826-.658-1.365,1.718-1.215-.968,1.269-1.6-.819-.651-1.269,1.6-1.038-.819,1.365-1.716-.818-.652L6.1,21.724l4.718,3.747Z" transform="translate(1.04 3.24)"/><path class="a" d="M0,31.57l4.537,4.544.6-1.241-1.1-1.016.953-1.982,1.482.227.6-1.241-6.381-.7Zm1.6-.228,2.282.339L3.2,33.1v-.007q-1.6-1.482-2.017-1.827c.1.022.239.049.413.077" transform="translate(0 5.141)"/><path class="a" d="M92.676,54.884H87.834c.059-28.4-.009-28.442-.266-28.565a69.883,69.883,0,0,0-31.484-7.387,76.526,76.526,0,0,0-32.82,7.391l-.2.109V54.886H16.883V65.759h6.176v9.982c0,22.565,22.97,29.761,30.516,32.123.739.233,1.32.416,1.707.561l.14.048.137-.049c.386-.145.969-.327,1.707-.561,7.547-2.361,30.523-9.557,30.523-32.123.008-3.582.014-6.9.022-9.982h4.866ZM55.034,19.725V54.884h-31.2V26.9h0a76.208,76.208,0,0,1,31.2-7.177m-2.793,39.9v.72H51.167v2.381H52.6v.714h-1.43a.716.716,0,0,1-.719-.714V57.241h0v0a.718.718,0,0,1,.725-.71H52.6v.714H51.167v2.381Zm-4.211,3.1V61.288h.719v2.148H46.6V56.527h.716v6.2Zm-3.138.283a.513.513,0,0,1-.513.51h0a.511.511,0,0,1-.509-.51h0v0a.513.513,0,0,1,1.026,0m-3.427-4.8c-.241.843-.514,1.566-.764,2.322h-.018c-.25-.757-.524-1.481-.765-2.322H39.9c.041.541.082,1.451.082,2.08v3.154h-.72V56.53h.666l.428,1.238c.114.351.232.7.337,1.053h.016c.109-.351.226-.7.343-1.053l.424-1.238h.66v6.906h-.72V60.281c0-.629.041-1.538.077-2.08Zm-5.51,2.14v3.095h-.715V57.541a1.074,1.074,0,1,1,2.148,0v5.894h-.713V60.341Zm-2.77-.72v.72H32.1v2.381h1.434v.714H32.1a.712.712,0,0,1-.71-.714V57.241h0v-.008a.714.714,0,0,1,.72-.707h1.434v.714H32.1v2.381Zm-5.1.716v3.095h-.719V56.527H28.8a.715.715,0,0,1,.715.714v2.19a.552.552,0,0,1-.318.551c.173.068.318.214.318.637v2.308a1.009,1.009,0,0,0,.173.51H28.95a1.143,1.143,0,0,1-.154-.51V60.341Zm-4.738-3.811h1.433a.716.716,0,0,1,.716.714v5.487a.714.714,0,0,1-.72.708H23.343Zm31.69,50.992c-.346-.114-.737-.241-1.225-.391-7.414-2.326-29.975-9.394-29.975-31.387V65.758h31.2Zm-.016-47.177v3.095H54.3V57.541a1.076,1.076,0,0,1,2.151,0v5.894h-.717V60.341Zm31.991,15.4c0,21.993-22.562,29.061-29.976,31.387-.487.15-.874.274-1.224.391V65.759H87.028c-.007,3.632-.021,7.046-.021,9.982M60.473,60.618v2.308a1.03,1.03,0,0,0,.172.51h-.736a1.158,1.158,0,0,1-.155-.51V60.341l-.715,0v3.095h-.714V56.527h1.428a.718.718,0,0,1,.72.714v2.19a.547.547,0,0,1-.323.551c.178.068.323.214.323.637m3.31-2.086v-2H64.5v6.906h-.678c-.248-1.451-.618-2.88-.833-4.424h-.016c.042.583.1,1.812.1,2.422v2h-.72V56.53h.679c.248,1.451.619,2.882.833,4.424h.018c-.041-.583-.1-1.812-.1-2.422M66.222,63v0a.508.508,0,0,1,.513-.506h0a.51.51,0,0,1,.509.509v0a.51.51,0,0,1-.51.508h0a.508.508,0,0,1-.508-.51Zm4.173-.279V60.345h-.714a.72.72,0,0,1-.72-.72v-2.08a1.077,1.077,0,0,1,2.154,0v.783h-.72V57.239h-.714V59.62H70.4a.718.718,0,0,1,.719.72v2.08a1.077,1.077,0,0,1-2.154,0v-.783h.72v1.089Zm4.383-3.1v.72H73.7v2.381h1.434v.714H73.7a.712.712,0,0,1-.71-.714V57.241h0v-.007a.713.713,0,0,1,.717-.708h1.434v.714H73.7v2.381Zm4.209,1v2.308a1.021,1.021,0,0,0,.174.51h-.733a1.19,1.19,0,0,1-.159-.51V60.341l-.71,0v3.095h-.721V56.527h1.434a.713.713,0,0,1,.715.714v2.19a.548.548,0,0,1-.318.551c.172.068.318.214.318.637m1.7-4.088h.723l.32,3.394c.037.437.085.86.117,1.743h.016c.032-.883.077-1.306.118-1.743L82.3,56.53h.724l-.828,6.906h-.679ZM86.5,59.621v.72h-1.07v2.381h1.434v.714H85.427a.714.714,0,0,1-.713-.714V57.241h0v-.008a.714.714,0,0,1,.723-.707h1.434v.714H85.434v2.381Zm.547-4.738H55.809V19.718c.095,0,.187-.007.279-.008a69.162,69.162,0,0,1,30.936,7.2c.053,1.776.049,14.7.027,27.974" transform="translate(2.878 3.227)"/><path class="a" d="M91.8,26.976a1.548,1.548,0,0,0,.6-.755,1.347,1.347,0,0,0-.1-.949l.03-.026a1.011,1.011,0,0,0,.735.3,1.46,1.46,0,0,0,.865-.32,1.272,1.272,0,0,0,.593-1.154,3.646,3.646,0,0,0-.805-1.717L92.6,20.841l-4.859,3.566,1.333,1.818a2.569,2.569,0,0,0,1.33,1.032h.007a1.545,1.545,0,0,0,.419.062,1.6,1.6,0,0,0,.962-.343m.727-4.487.4.543a1.673,1.673,0,0,1,.351.736.536.536,0,0,1-.249.5.6.6,0,0,1-.569.126,1.319,1.319,0,0,1-.574-.511l-.439-.6Zm-2.677,2.994-.49-.671,1.268-.929.467.637c.423.578.434,1.015.028,1.311a.741.741,0,0,1-.645.163,1.247,1.247,0,0,1-.627-.51" transform="translate(14.956 3.552)"/><path class="a" d="M32.321,5.365a1.877,1.877,0,0,0,.585.4A3.686,3.686,0,0,0,33.843,6a7.509,7.509,0,0,1,.868.16,1.109,1.109,0,0,1,.351.17.53.53,0,0,1,.187.272.552.552,0,0,1-.075.523,1.094,1.094,0,0,1-.569.343,3.078,3.078,0,0,1-.773.117,7.354,7.354,0,0,1-1.1-.062l.351,1.134.007,0a3.519,3.519,0,0,0,.52.05,4.181,4.181,0,0,0,1.218-.193,2.553,2.553,0,0,0,1.424-.936,1.557,1.557,0,0,0,.184-1.4,1.586,1.586,0,0,0-.593-.859A3.223,3.223,0,0,0,34.5,4.878a8.444,8.444,0,0,1-.9-.165.813.813,0,0,1-.309-.16.54.54,0,0,1-.163-.257.568.568,0,0,1,.056-.48.82.82,0,0,1,.482-.323,2.613,2.613,0,0,1,.616-.109,6.158,6.158,0,0,1,.844.03l.1-1.071a6.067,6.067,0,0,0-.945-.036,3.548,3.548,0,0,0-.891.157,2.246,2.246,0,0,0-1.3.879A1.554,1.554,0,0,0,31.946,4.7a1.6,1.6,0,0,0,.376.661" transform="translate(5.429 0.392)"/><path class="a" d="M96.479,26.145l-6.286,1.271.7,1.182,1.457-.359,1.127,1.888-1.01,1.112.707,1.183,4.1-4.935ZM95.788,27.6q-.183.195-1.545,1.716l-.806-1.351v-.006c1.415-.337,2.294-.564,2.643-.66-.071.067-.173.17-.29.3" transform="translate(15.373 4.456)"/><path class="a" d="M70.76,11.026l1.031-2.148,1.845.885.451-.936-1.843-.886.674-1.4,1.98.952.452-.943-3.113-1.5-2.609,5.433Z" transform="translate(11.868 0.861)"/><rect class="a" width="0.714" height="2.381" transform="translate(80.434 60.477)"/><path class="a" d="M80.643,17.394l0,0a2.875,2.875,0,0,0,1.845.767,2.26,2.26,0,0,0,.3-.019,3.257,3.257,0,0,0,2.045-1.287,3.279,3.279,0,0,0,.912-2.238,2.73,2.73,0,0,0-1.119-1.976,2.778,2.778,0,0,0-2.147-.76,3.23,3.23,0,0,0-2.044,1.287,3.269,3.269,0,0,0-.908,2.247,2.736,2.736,0,0,0,1.115,1.982m.812-3.363a2.517,2.517,0,0,1,1.278-.921l0,0a1.194,1.194,0,0,1,.28-.033,1.435,1.435,0,0,1,.927.378q1.164.973-.14,2.538t-2.475.585a1.34,1.34,0,0,1-.551-1.128,2.527,2.527,0,0,1,.678-1.414" transform="translate(13.555 2.023)"/><path class="a" d="M99.616,32.648l-2.782-.075,1.708-2.191-.593-1.254-2.508,3.4-2.082.986.54,1.145,2.12-1,4.184.234Z" transform="translate(15.912 4.965)"/><path class="a" d="M83.981,20.259l2.047-1.918q.348-.328,1.348-1.374l.027.027-2.458,4.293.8.854,4.51-2.1.026.027c-.576.5-.933.8-1.063.919s-.246.222-.343.315l-2.083,1.95.818.872L92.006,20l-1.19-1.27-4.4,2.049-.016-.018,2.387-4.195L87.6,15.3l-4.4,4.125Z" transform="translate(14.181 2.608)"/><path class="a" d="M66.626,9.3l.006,0a3.5,3.5,0,0,0,1.179.229A2.359,2.359,0,0,0,68.9,9.27a3.276,3.276,0,0,0,1.479-1.913,3.283,3.283,0,0,0,.091-2.413,2.745,2.745,0,0,0-1.728-1.475,2.774,2.774,0,0,0-2.275.021A3.232,3.232,0,0,0,64.986,5.4,3.278,3.278,0,0,0,64.9,7.823,2.747,2.747,0,0,0,66.626,9.3m-.382-3.439a2.507,2.507,0,0,1,.881-1.3l.008,0a1.2,1.2,0,0,1,.671-.2,1.667,1.667,0,0,1,.576.111q1.436.52.741,2.432T66.993,8.294a1.333,1.333,0,0,1-.9-.87,2.49,2.49,0,0,1,.156-1.56" transform="translate(11.029 0.551)"/><path class="a" d="M76.684,14.376a2.711,2.711,0,0,0,1.445.5c.053,0,.107,0,.158-.007a1.742,1.742,0,0,0,1.491-1.68,1.333,1.333,0,0,0-.437-.85l.022-.034a1.012,1.012,0,0,0,.792.015,1.474,1.474,0,0,0,.694-.607,1.27,1.27,0,0,0,.142-1.287,3.61,3.61,0,0,0-1.365-1.316L78.048,8.088l-3.264,5.068,1.894,1.223Zm1.875-4.713.564.363a1.608,1.608,0,0,1,.595.564.533.533,0,0,1-.059.554.6.6,0,0,1-.483.321,1.345,1.345,0,0,1-.718-.272l-.626-.4ZM77.279,11.64l.667.428q.9.579.494,1.214a.749.749,0,0,1-.549.384,1.248,1.248,0,0,1-.762-.253l-.7-.452Z" transform="translate(12.747 1.379)"/><path class="a" d="M47.6,5.419a2.741,2.741,0,0,0,2.1.8h.027A2.755,2.755,0,0,0,51.85,5.4a3.277,3.277,0,0,0,.732-2.3,3.276,3.276,0,0,0-.75-2.3A2.748,2.748,0,0,0,49.7.007a2.781,2.781,0,0,0-2.13.806,3.241,3.241,0,0,0-.732,2.3,3.3,3.3,0,0,0,.755,2.306Zm.95-3.829a1.347,1.347,0,0,1,1.146-.52l.015,0q1.513,0,1.522,2.028T49.716,5.138a1.344,1.344,0,0,1-1.151-.5,2.53,2.53,0,0,1-.392-1.522,2.508,2.508,0,0,1,.382-1.522" transform="translate(7.982 0)"/><path class="a" d="M42.949,6.581l-.27-2.587,2.374-.248.272,2.587L46.591,6.2l-.627-6L44.7.337l.246,2.349-2.374.248L42.321.586l-1.27.132.626,6Z" transform="translate(6.997 0.035)"/><path class="a" d="M62.377,6.764l-2.384-.534,1.089-4.853-1.25-.28L58.515,6.982l3.63.812Z" transform="translate(9.974 0.187)"/><path class="a" d="M37.5,6.914l.007,0a2.26,2.26,0,0,0,1.352.428,3.511,3.511,0,0,0,.782-.095,4.292,4.292,0,0,0,1.545-.673l-.24-1.045a4.8,4.8,0,0,1-1.427.654q-1.475.337-1.928-1.627a2.542,2.542,0,0,1,.047-1.561,1.305,1.305,0,0,1,.968-.78,2.052,2.052,0,0,1,.681-.034,6.642,6.642,0,0,1,.726.117l.169-1.1a4.029,4.029,0,0,0-1.815-.018,2.908,2.908,0,0,0-1.379.7,2.473,2.473,0,0,0-.716,1.278,3.767,3.767,0,0,0,.036,1.683A3.39,3.39,0,0,0,37.5,6.914" transform="translate(6.169 0.184)"/><path class="a" d="M32.988,97.769,31.9,100.408c-.123.3-.315.818-.576,1.56l-.027-.013-.7-5.171-1.49-.616-2.3,5.576,1.053.434,1.081-2.622q.2-.478.585-1.623l.034.015.687,5.217,1.506.614,2.3-5.574Z" transform="translate(4.569 16.392)"/><path class="a" d="M55.393,6.569H55.4a4.362,4.362,0,0,0,.493.037A2.537,2.537,0,0,0,57.6,6.029a3.277,3.277,0,0,0,1.012-2.2,3.279,3.279,0,0,0-.458-2.372A2.746,2.746,0,0,0,56.142.407a2.783,2.783,0,0,0-2.214.535,3.251,3.251,0,0,0-1.012,2.192,3.286,3.286,0,0,0,.461,2.382,2.76,2.76,0,0,0,2.017,1.053M54.244,3.3a2.523,2.523,0,0,1,.564-1.467h.012a1.269,1.269,0,0,1,.949-.386,2.144,2.144,0,0,1,.245.015q1.51.183,1.269,2.2T55.52,5.5a1.347,1.347,0,0,1-1.077-.645,2.508,2.508,0,0,1-.2-1.556" transform="translate(9.009 0.061)"/><rect class="a" width="0.715" height="2.381" transform="translate(61.917 60.477)"/><path class="a" d="M36.06,98.833l-1.811-.543-1.733,5.775,1.64.49h0a4.691,4.691,0,0,0,1.334.215,2.743,2.743,0,0,0,1.237-.273,2.968,2.968,0,0,0,1.467-1.943,2.856,2.856,0,0,0-.159-2.317,3.173,3.173,0,0,0-1.972-1.4m.852,3.377a1.7,1.7,0,0,1-2.341,1.367l-.524-.156,1.128-3.761.651.2c1.1.33,1.458,1.112,1.086,2.354" transform="translate(5.542 16.753)"/><path class="a" d="M25.755,35.578a8.082,8.082,0,0,1,12.3,6.9l0,0v0a.409.409,0,0,0,.413.4h0a.409.409,0,0,0,.407-.408,8.9,8.9,0,0,0-13.542-7.59h0a.409.409,0,0,0,.43.7" transform="translate(4.284 5.723)"/><path class="a" d="M72.572,69.385A9.6,9.6,0,0,1,60.777,82.564l-.343-.117-1.6,3.785h5.7v1.4H56.8a.388.388,0,0,0,0,.776l8.5,0V85.459h-5.3l.864-2.046a10.38,10.38,0,0,0,6.794-19.6l.691-1.826a.389.389,0,0,0-.728-.276l-.968,2.566.377.131a9.526,9.526,0,0,1,5.534,4.978" transform="translate(9.616 10.476)"/><path class="a" d="M25.619,38.1a5.987,5.987,0,0,1,10.375,4.074v6.2l0-.007v.009a.409.409,0,0,0,.818,0v-6.2a6.8,6.8,0,0,0-11.789-4.628h0a.408.408,0,0,0,.6.554" transform="translate(4.246 6.028)"/><rect class="a" width="0.715" height="2.381" transform="translate(38.833 60.477)"/><rect class="a" width="0.714" height="2.381" transform="translate(57.893 60.477)"/><path class="a" d="M26.456,33.274a10.09,10.09,0,0,1,11.436,3.449,9.786,9.786,0,0,1,2.189,5.384c-.021.218-.03.438-.03.659v6.2l0-.007v0a.407.407,0,0,0,.412.4h0a.406.406,0,0,0,.4-.407V44.255a.373.373,0,0,0,.032-.124,11.285,11.285,0,0,0,.006-2.038,5.988,5.988,0,0,1,10.339-3.407.408.408,0,0,0,.6-.555,6.8,6.8,0,0,0-11.277,2.038A9.96,9.96,0,0,0,38.517,36.2a10.9,10.9,0,0,0-12.333-3.692.407.407,0,1,0,.273.768" transform="translate(4.417 5.434)"/><path class="a" d="M29.323,29.312a13.937,13.937,0,0,1,8.136,2.6l.016.026v-.011a.4.4,0,0,0,.571.1,13.907,13.907,0,0,1,8.295-2.713.408.408,0,0,0,0-.816,14.71,14.71,0,0,0-8.509,2.681A14.726,14.726,0,0,0,29.323,28.5h0a.408.408,0,0,0-.406.408v0a.406.406,0,0,0,.407.4" transform="translate(4.929 4.857)"/><path class="a" d="M28.235,31.174a11.417,11.417,0,0,1,1.28-.069,11.927,11.927,0,0,1,8.1,3.16.4.4,0,0,0,.242.107V34.36a.368.368,0,0,0,.515-.023A11.872,11.872,0,0,1,46.533,31.1a11.432,11.432,0,0,1,1.28.069h.015a.4.4,0,0,0,.433-.364.41.41,0,0,0-.362-.449,13.006,13.006,0,0,0-1.366-.073,12.687,12.687,0,0,0-8.507,3.253,12.748,12.748,0,0,0-8.511-3.253,13.011,13.011,0,0,0-1.367.073.409.409,0,0,0-.363.449l0,.027a.4.4,0,0,0,.446.336" transform="translate(4.736 5.163)"/><path class="a" d="M31.706,27.913a15.856,15.856,0,0,1,5.485,2.081H37.2a.383.383,0,0,0,.425-.009.6.6,0,0,0,.056-.026A15.757,15.757,0,0,1,43.1,27.913h0a.408.408,0,0,0,.329-.474.413.413,0,0,0-.469-.331,16.556,16.556,0,0,0-5.55,2.065,16.636,16.636,0,0,0-5.557-2.065.414.414,0,0,0-.475.331.41.41,0,0,0,.331.474" transform="translate(5.347 4.619)"/><path class="a" d="M57.6,29.828H68.461a.387.387,0,1,0,0-.774H57.6a.386.386,0,0,0-.386.387v0a.385.385,0,0,0,.386.384" transform="translate(9.752 4.952)"/><path class="a" d="M68.464,30.746H57.6a.385.385,0,0,0-.386.386h0a.387.387,0,0,0,.386.389H68.464a.388.388,0,0,0,0-.776" transform="translate(9.752 5.241)"/><rect class="a" width="0.715" height="5.479" transform="translate(26.934 60.477)"/><path class="a" d="M68.852,36.19a.389.389,0,0,0-.387-.387H57.6a.386.386,0,0,0-.385.387h0a.385.385,0,0,0,.386.386H68.465a.387.387,0,0,0,.387-.387" transform="translate(9.752 6.102)"/><path class="a" d="M34.75,88.206l.117.117,14.771,0a.4.4,0,0,0,0-.8H35.2c-2.947-2.988-4.4-6.171-4.307-9.447a14.145,14.145,0,0,1,4.078-8.9l.574.853c-1.362,5.632-.857,9.675,1.508,12.016a8.875,8.875,0,0,0,6.332,2.224,14.354,14.354,0,0,0,3.283-.372.4.4,0,0,0,.29-.487l0-.007a.4.4,0,0,0-.486-.282,12.06,12.06,0,0,1-1.324.226v-3.58h2.229a.4.4,0,0,0,.4-.4h0a.4.4,0,0,0-.4-.4H39.489a.4.4,0,0,0,0,.8h1.889v3.511a6.957,6.957,0,0,1-3.764-1.8c-2.048-2.027-2.523-5.575-1.453-10.516l3.112,4.656,3.133-2.093L34.712,62.013,31.578,64.1l1.673,2.5c.009.019-.009.026.009.056s.048.043.074.068L34.515,68.5a14.834,14.834,0,0,0-4.422,9.551c-.1,3.555,1.468,6.974,4.657,10.161m7.429-8.442h2.167v3.656a13.524,13.524,0,0,1-2.167-.03ZM41.3,73.3l-1.8,1.206-.89-1.33L40.43,72Zm-8.607-8.976,1.8-1.206,1.065,1.6-1.824,1.17Zm1.49,2.224L36,65.379l3.98,5.96-1.826,1.17Z" transform="translate(5.128 10.57)"/><path class="a" d="M68.464,32.435H57.6a.388.388,0,0,0,0,.776H68.464a.388.388,0,0,0,0-.776" transform="translate(9.752 5.528)"/><rect class="a" width="0.714" height="2.381" transform="translate(30.959 60.477)"/><path class="a" d="M57.6,34.9H68.464a.388.388,0,0,0,0-.776H57.6a.385.385,0,0,0-.384.389h0a.386.386,0,0,0,.386.386" transform="translate(9.752 5.816)"/><path class="a" d="M43.168,100.34,40.335,106.1l1.368.164.6-1.372,2.183.261.263,1.478,1.371.16-1.4-6.264Zm-.414,3.524h0q.89-1.993,1.089-2.5c.009.1.027.236.06.412s.169.935.416,2.273Z" transform="translate(6.875 17.103)"/><path class="a" d="M49.883,103.161a.773.773,0,0,0-.772.774h0a.774.774,0,1,0,.775-.774" transform="translate(8.37 17.583)"/><path class="a" d="M63.884,81.4a8.37,8.37,0,1,0-7.592-4.8,8.326,8.326,0,0,0,7.592,4.8M63.86,65.43a7.606,7.606,0,0,1,2.575.451,7.529,7.529,0,0,1,4.3,3.907,7.638,7.638,0,0,1,.73,3.228L61.393,65.847l0-.006a7.511,7.511,0,0,1,2.471-.411m-3.312.763.028.025,10.838,7.706A7.774,7.774,0,0,1,70.347,77L58,68.209l0-.006a7.565,7.565,0,0,1,2.555-2.01M57.54,68.835l12.372,8.808a7.57,7.57,0,0,1-2.632,2.176l-.02-.015L56.347,71.968l0-.006a7.645,7.645,0,0,1,1.2-3.127m8.906,11.342A7.62,7.62,0,0,1,57,76.272l-.006-.007a7.53,7.53,0,0,1-.716-3.4Z" transform="translate(9.459 11.02)"/><path class="a" d="M55.784,100.378l-1.7,1.812.719.668.605-.652c.069-.075.194-.235.375-.476l.069.624.07.57.509,3.456,1.259-.185-.873-5.969Z" transform="translate(9.219 17.083)"/><path class="a" d="M72.644,44.148l-.754-.022V27.462a1.429,1.429,0,0,0-1.429-1.428H56.354a1.429,1.429,0,0,0-1.429,1.428v19.5A1.435,1.435,0,0,0,56.358,48.4h8.03l2.626,2.79a18.317,18.317,0,0,0,2.516.771l-.007-.006c1.06.334,2.4.753,2.429.748a.409.409,0,0,0,.386-.268l1.071-2.78a4.834,4.834,0,0,0,.263-1.435V45.295a1.15,1.15,0,0,0-1.029-1.147m-8.2,3,0-.006c0-.012,0-.023,0-.035a.238.238,0,0,0,0,.041m2.672.151-1.3-1.385a1.016,1.016,0,0,0-1.486,0l-.424.451a1.112,1.112,0,0,0-.159,1.257H56.359a.659.659,0,0,1-.654-.657v-1.81H67.114Zm.44,1.111v0s.013-.014.026-.008h.032a.432.432,0,0,1-.056.011m-9.565-8.974h0a.387.387,0,0,0,0,.775h9.17a1.058,1.058,0,0,0-.046.241v.96H57.985a.387.387,0,0,0,0,.774h9.129v2.189H55.7V27.469l0-.007a.659.659,0,0,1,.644-.655H70.45a.655.655,0,0,1,.652.655V44.1l-1.265-.036a.328.328,0,0,1-.25-.322V40.45a1.073,1.073,0,0,0-.446-.847.328.328,0,0,0-.165-.117.871.871,0,0,0-.13-.049,1.054,1.054,0,0,0-.332-.069h-.36a1.04,1.04,0,0,0-.331.069Zm12.479,8.187h0a.631.631,0,0,0,.209-.043c-.022.007-.041.021-.063.027a.617.617,0,0,1-.146.016Zm.289-.08a.7.7,0,0,0,.119-.082.7.7,0,0,1-.119.082m.186-.143a.62.62,0,0,0,.083-.124.655.655,0,0,1-.083.124m.125-.2a.653.653,0,0,0,.047-.235.658.658,0,0,1-.047.235m1.525-2.22c.026,0,.039.027.06.036a.371.371,0,0,0-.091-.036ZM71.57,52.151a.019.019,0,0,1-.009.012l.966-2.556,0-.006c.013-.022.03-.046.046-.076Zm1.007-2.625h0l.057-.159Zm.272-1.293a2.729,2.729,0,0,1-.04.437c0,.047-.015.1-.023.142l0-.007c.009-.046.021-.1.027-.135l-.006-.006a6.918,6.918,0,0,0,.046-.763Zm0-.334c0-.265-.015-.441-.015-.441V45.524l0-.006c.033-.279-.054-.418-.154-.486a.309.309,0,0,1,.173.268Z" transform="translate(9.362 4.437)"/><path class="a" d="M56.177,74.864v0l0,0Z" transform="translate(9.575 12.759)"/><path class="a" d="M41.237,100.836l.139-.712L38.683,99.6l-.139.71.658.468-.746,3.83-.785.192-.139.712,2.693.524.138-.714-.657-.468.747-3.829Z" transform="translate(6.397 16.977)"/><path class="a" d="M67.272,97.266l-1.221,2.162.856.481.434-.777c.05-.092.137-.276.254-.552l.217.585.2.537,1.305,3.237,1.183-.478-2.261-5.59Z" transform="translate(11.258 16.511)"/><path class="a" d="M38.217,36.543v0h0Z" transform="translate(6.514 6.228)"/><path class="a" d="M38.209,36.471h0a.408.408,0,0,0,.025.574.412.412,0,0,0,.281.11.423.423,0,0,0,.3-.132A8.081,8.081,0,0,1,49,35.579a.408.408,0,0,0,.424-.7,8.9,8.9,0,0,0-11.209,1.588" transform="translate(6.495 5.723)"/><path class="a" d="M37.471,34.819a.41.41,0,0,0-.021.577v-.007a.414.414,0,0,0,.3.142.4.4,0,0,0,.28-.117,10.1,10.1,0,0,1,10.257-2.133h0a.408.408,0,0,0,.274-.769,10.907,10.907,0,0,0-11.089,2.307" transform="translate(6.365 5.435)"/><path class="a" d="M66.328,101.505a2.931,2.931,0,0,0-1.155-.423,2.2,2.2,0,0,0,.584-.867,1.377,1.377,0,0,0-.012-.86,1.249,1.249,0,0,0-.828-.847,2.658,2.658,0,0,0-2.658.864,1.25,1.25,0,0,0-.187,1.163,1.52,1.52,0,0,0,.468.7,2.256,2.256,0,0,0,.922.438,2.271,2.271,0,0,0-.621.936,1.584,1.584,0,0,0,.021.955,1.4,1.4,0,0,0,.9.96h0a1.917,1.917,0,0,0,.619.1,3.272,3.272,0,0,0,.989-.173,2.417,2.417,0,0,0,1.317-.9,1.44,1.44,0,0,0,.187-1.317,1.4,1.4,0,0,0-.548-.73m-2.794-.874a.7.7,0,0,1-.286-.373.569.569,0,0,1,.053-.488.788.788,0,0,1,.449-.321h0a.955.955,0,0,1,.3-.049.7.7,0,0,1,.254.046.542.542,0,0,1,.336.363.7.7,0,0,1-.013.486,1.555,1.555,0,0,1-.418.543,1.8,1.8,0,0,1-.673-.2m2.15,2.52a1.3,1.3,0,0,1-1.318.432.67.67,0,0,1-.4-.451h0c-.126-.392.044-.808.521-1.243a2.94,2.94,0,0,1,.879.256.732.732,0,0,1,.383.42.687.687,0,0,1-.059.585" transform="translate(10.568 16.774)"/><path class="a" d="M72.883,96.6a.772.772,0,0,0-.77.772h0v.006a.774.774,0,1,0,.775-.777" transform="translate(12.29 16.465)"/><path class="a" d="M61.793,100.378a2.007,2.007,0,0,0-.948-.722,2.158,2.158,0,0,0-1.209-.056,1.993,1.993,0,0,0-1.34.873,2.091,2.091,0,0,0-.21,1.615,2.022,2.022,0,0,0,.744,1.272,1.583,1.583,0,0,0,1.323.227,1.767,1.767,0,0,0,.732-.322,1.422,1.422,0,0,0,.423-.651l.048-.013a2.609,2.609,0,0,1-.006,1.138,1.316,1.316,0,0,1-.49.71,2.514,2.514,0,0,1-.986.408,3.049,3.049,0,0,1-.729.074l.221,1a4.052,4.052,0,0,0,.8-.117,2.825,2.825,0,0,0,2.03-1.344,4.027,4.027,0,0,0,.162-2.761,3.475,3.475,0,0,0-.568-1.328m-.9,1.785a.96.96,0,0,1-.593.391.74.74,0,0,1-.658-.117,1.087,1.087,0,0,1-.351-.633,1.2,1.2,0,0,1,.05-.811.753.753,0,0,1,.544-.4h0a.81.81,0,0,1,.722.19,1.327,1.327,0,0,1,.427.754.767.767,0,0,1-.143.627" transform="translate(9.888 16.966)"/><path class="a" d="M34.106,26.775a18.018,18.018,0,0,1,2.707,1.153h.007a.391.391,0,0,0,.187.052.417.417,0,0,0,.283-.117,17.643,17.643,0,0,1,2.575-1.087.41.41,0,0,0,.26-.515h0A.409.409,0,0,0,39.609,26a18.563,18.563,0,0,0-2.623,1.1A18.746,18.746,0,0,0,34.364,26l-.006,0a.407.407,0,0,0-.51.262v0a.405.405,0,0,0,.259.511" transform="translate(5.766 4.428)"/></g></svg>